<svg xmlns="http://www.w3.org/2000/svg" width="960" height="600" viewBox="0 0 960 600">
  <rect width="960" height="600" fill="#f8fafc"/>
  <rect x="48" y="40" width="864" height="116" rx="10" fill="#ffffff" stroke="#d6d3d1"/>
  <text x="78" y="80" font-family="Arial" font-size="18" font-weight="700" fill="#0f766e">DataTrust AI</text>
  <text x="78" y="122" font-family="Arial" font-size="34" font-weight="700" fill="#0f172a">customer_master.csv</text>
  <text x="78" y="146" font-family="Arial" font-size="16" fill="#475569">5,000 rows - 8 columns - demo audit</text>
  <rect x="48" y="186" width="420" height="188" rx="10" fill="#ffffff" stroke="#d6d3d1"/>
  <text x="78" y="230" font-family="Arial" font-size="16" font-weight="700" fill="#64748b">QUALITY SCORE</text>
  <text x="78" y="300" font-family="Arial" font-size="76" font-weight="700" fill="#020617">58</text>
  <text x="184" y="300" font-family="Arial" font-size="28" font-weight="700" fill="#64748b">/ 100</text>
  <rect x="78" y="326" width="98" height="30" rx="15" fill="#fee2e2"/>
  <text x="98" y="347" font-family="Arial" font-size="15" font-weight="700" fill="#b91c1c">High Risk</text>
  <rect x="492" y="186" width="420" height="188" rx="10" fill="#ffffff" stroke="#d6d3d1"/>
  <text x="522" y="230" font-family="Arial" font-size="18" font-weight="700" fill="#0f172a">Severity distribution</text>
  <circle cx="620" cy="292" r="58" fill="none" stroke="#b91c1c" stroke-width="34"/>
  <circle cx="620" cy="292" r="58" fill="none" stroke="#ea580c" stroke-width="34" stroke-dasharray="150 365" transform="rotate(120 620 292)"/>
  <circle cx="620" cy="292" r="58" fill="none" stroke="#d97706" stroke-width="34" stroke-dasharray="95 365" transform="rotate(230 620 292)"/>
  <text x="710" y="282" font-family="Arial" font-size="14" fill="#334155">Critical 3</text>
  <text x="710" y="306" font-family="Arial" font-size="14" fill="#334155">High 2</text>
  <text x="710" y="330" font-family="Arial" font-size="14" fill="#334155">Medium 4</text>
  <rect x="48" y="406" width="864" height="150" rx="10" fill="#ffffff" stroke="#d6d3d1"/>
  <text x="78" y="446" font-family="Arial" font-size="18" font-weight="700" fill="#0f172a">Column risk ranking</text>
  <rect x="78" y="472" width="760" height="14" rx="7" fill="#fee2e2"/>
  <rect x="78" y="502" width="620" height="14" rx="7" fill="#ffedd5"/>
  <rect x="78" y="532" width="500" height="14" rx="7" fill="#fef3c7"/>
</svg>
